<mxfile host="app.diagrams.net" modified="2020-11-27T21:57:10.607Z" agent="5.0 (Macintosh; Intel Mac OS X 10_15_6) AppleWebKit/605.1.15 (KHTML, like Gecko) Version/14.0.1 Safari/605.1.15" etag="JP6KI-kUeTl52KgvvZ_X" version="13.10.3" type="github">
  <diagram id="ItNjQNX7oRzqFyE7Ipll" name="Page-1">
    <mxGraphModel dx="946" dy="645" grid="1" gridSize="10" guides="1" tooltips="1" connect="1" arrows="1" fold="1" page="1" pageScale="1" pageWidth="827" pageHeight="1169" math="0" shadow="0">
      <root>
        <mxCell id="0" />
        <mxCell id="1" parent="0" />
        <mxCell id="o0FbUrnGtFw57tziQlIS-1" value="" style="shape=hexagon;perimeter=hexagonPerimeter2;whiteSpace=wrap;html=1;fixedSize=1;" vertex="1" parent="1">
          <mxGeometry x="210" y="70" width="120" height="97" as="geometry" />
        </mxCell>
        <mxCell id="o0FbUrnGtFw57tziQlIS-2" value="" style="rounded=0;whiteSpace=wrap;html=1;" vertex="1" parent="1">
          <mxGeometry x="200" y="105" width="560" height="530" as="geometry" />
        </mxCell>
        <mxCell id="o0FbUrnGtFw57tziQlIS-3" value="&lt;font face=&quot;Times New Roman&quot;&gt;&lt;span style=&quot;font-size: 14px&quot;&gt;&lt;b&gt;Inserimento nuova uscita&lt;/b&gt;&lt;/span&gt;&lt;/font&gt;" style="text;html=1;strokeColor=none;fillColor=none;align=center;verticalAlign=middle;whiteSpace=wrap;rounded=0;" vertex="1" parent="1">
          <mxGeometry x="381.5" y="577" width="145" height="20" as="geometry" />
        </mxCell>
        <mxCell id="o0FbUrnGtFw57tziQlIS-4" value="&lt;div align=&quot;center&quot;&gt;&lt;font face=&quot;Times New Roman&quot;&gt;&lt;b&gt;Gestione&lt;/b&gt;&lt;/font&gt;&lt;/div&gt;&lt;div align=&quot;center&quot;&gt;&lt;font face=&quot;Times New Roman&quot;&gt;&lt;b&gt;finanze&lt;/b&gt;&lt;/font&gt;&lt;/div&gt;" style="text;html=1;strokeColor=none;fillColor=none;align=center;verticalAlign=middle;whiteSpace=wrap;rounded=0;" vertex="1" parent="1">
          <mxGeometry x="250" y="77" width="40" height="20" as="geometry" />
        </mxCell>
        <mxCell id="o0FbUrnGtFw57tziQlIS-5" value="&lt;div&gt;&lt;br&gt;&lt;/div&gt;&lt;div&gt;&lt;br&gt;&lt;/div&gt;&lt;div&gt;&lt;br&gt;&lt;/div&gt;&lt;div&gt;&lt;br&gt;&lt;/div&gt;&lt;div&gt;&lt;br&gt;&lt;/div&gt;&lt;div&gt;&lt;br&gt;&lt;/div&gt;" style="ellipse;whiteSpace=wrap;html=1;" vertex="1" parent="1">
          <mxGeometry x="570" y="330" width="80" height="60" as="geometry" />
        </mxCell>
        <mxCell id="o0FbUrnGtFw57tziQlIS-7" value="&lt;div&gt;&lt;br&gt;&lt;/div&gt;&lt;div&gt;&lt;br&gt;&lt;/div&gt;&lt;div&gt;&lt;br&gt;&lt;/div&gt;&lt;div&gt;&lt;br&gt;&lt;/div&gt;&lt;div&gt;&lt;br&gt;&lt;/div&gt;&lt;div&gt;&lt;br&gt;&lt;/div&gt;" style="ellipse;whiteSpace=wrap;html=1;" vertex="1" parent="1">
          <mxGeometry x="414" y="510" width="80" height="60" as="geometry" />
        </mxCell>
        <mxCell id="o0FbUrnGtFw57tziQlIS-9" value="" style="endArrow=none;html=1;entryX=0;entryY=0.5;entryDx=0;entryDy=0;exitX=1;exitY=0.3333333333333333;exitDx=0;exitDy=0;exitPerimeter=0;" edge="1" parent="1" target="o0FbUrnGtFw57tziQlIS-5">
          <mxGeometry width="50" height="50" relative="1" as="geometry">
            <mxPoint x="80" y="365" as="sourcePoint" />
            <mxPoint x="330" y="350" as="targetPoint" />
          </mxGeometry>
        </mxCell>
        <mxCell id="o0FbUrnGtFw57tziQlIS-10" value="&lt;font face=&quot;Times New Roman&quot;&gt;&lt;b&gt;&lt;span style=&quot;font-size: 14px&quot;&gt;Inserimento&amp;nbsp;nuova entrata&lt;/span&gt;&lt;/b&gt;&lt;/font&gt;" style="text;html=1;strokeColor=none;fillColor=none;align=center;verticalAlign=middle;whiteSpace=wrap;rounded=0;" vertex="1" parent="1">
          <mxGeometry x="381.5" y="200" width="145" height="20" as="geometry" />
        </mxCell>
        <mxCell id="o0FbUrnGtFw57tziQlIS-12" value="&lt;font face=&quot;Times New Roman&quot;&gt;&lt;span style=&quot;font-size: 14px&quot;&gt;&lt;b&gt;Visualizzazione lista finanze&lt;/b&gt;&lt;/span&gt;&lt;/font&gt;" style="text;html=1;strokeColor=none;fillColor=none;align=center;verticalAlign=middle;whiteSpace=wrap;rounded=0;" vertex="1" parent="1">
          <mxGeometry x="537.5" y="410" width="145" height="20" as="geometry" />
        </mxCell>
        <mxCell id="o0FbUrnGtFw57tziQlIS-14" value="&lt;div&gt;&lt;br&gt;&lt;/div&gt;&lt;div&gt;&lt;br&gt;&lt;/div&gt;&lt;div&gt;&lt;br&gt;&lt;/div&gt;&lt;div&gt;&lt;br&gt;&lt;/div&gt;&lt;div&gt;&lt;br&gt;&lt;/div&gt;&lt;div&gt;&lt;br&gt;&lt;/div&gt;" style="ellipse;whiteSpace=wrap;html=1;" vertex="1" parent="1">
          <mxGeometry x="414" y="130" width="80" height="60" as="geometry" />
        </mxCell>
        <mxCell id="o0FbUrnGtFw57tziQlIS-15" value="" style="endArrow=none;html=1;exitX=0;exitY=0.5;exitDx=0;exitDy=0;entryX=1;entryY=0.3333333333333333;entryDx=0;entryDy=0;entryPerimeter=0;" edge="1" parent="1" source="o0FbUrnGtFw57tziQlIS-14">
          <mxGeometry width="50" height="50" relative="1" as="geometry">
            <mxPoint x="370" y="320" as="sourcePoint" />
            <mxPoint x="80" y="365" as="targetPoint" />
          </mxGeometry>
        </mxCell>
        <mxCell id="o0FbUrnGtFw57tziQlIS-16" value="" style="endArrow=none;html=1;exitX=1;exitY=0.3333333333333333;exitDx=0;exitDy=0;entryX=0;entryY=0.5;entryDx=0;entryDy=0;exitPerimeter=0;" edge="1" parent="1" target="o0FbUrnGtFw57tziQlIS-7">
          <mxGeometry width="50" height="50" relative="1" as="geometry">
            <mxPoint x="80" y="365" as="sourcePoint" />
            <mxPoint x="450" y="410" as="targetPoint" />
          </mxGeometry>
        </mxCell>
        <mxCell id="o0FbUrnGtFw57tziQlIS-23" value="&lt;font face=&quot;Times New Roman&quot; style=&quot;font-size: 15px&quot;&gt;Direttore &lt;br&gt;Generale&lt;/font&gt;" style="shape=umlActor;verticalLabelPosition=bottom;verticalAlign=top;html=1;outlineConnect=0;" vertex="1" parent="1">
          <mxGeometry x="40" y="330" width="30" height="60" as="geometry" />
        </mxCell>
      </root>
    </mxGraphModel>
  </diagram>
</mxfile>
